<?xml version="1.0" encoding="UTF-8"?>
<svg version="1.1" xmlns="http://www.w3.org/2000/svg" width="512" height="512">
<path d="M0 0 C130.35 0 260.7 0 395 0 C395 28.71 395 57.42 395 87 C379.16 87.495 379.16 87.495 363 88 C350.66683636 90.64282078 342.17259466 92.65989182 334 102 C333.154375 102.928125 332.30875 103.85625 331.4375 104.8125 C324.692617 113.10573664 322.91321215 122.61821983 322 133 C321.09378906 133.03738281 320.18757813 133.07476562 319.25390625 133.11328125 C307.97678187 133.72188796 300.32098645 134.8126385 291.94921875 142.74609375 C286.2939916 149.28530431 284.88344382 156.9763789 284.85473633 165.4074707 C284.84835648 166.68262039 284.84197662 167.95777008 284.83540344 169.27156067 C284.83387436 170.65630047 284.83276062 172.04104079 284.83203125 173.42578125 C284.82881455 174.85678643 284.82545016 176.28779128 284.82194519 177.71879578 C284.81596706 180.71545168 284.8141039 183.71207879 284.81469727 186.70874023 C284.81479872 190.53162597 284.80115774 194.3543253 284.78392506 198.17716694 C284.77275595 201.1327345 284.77077957 204.08825772 284.77130699 207.04384422 C284.77013384 208.45231963 284.76574975 209.86079644 284.75797462 211.26925087 C284.70541276 221.77553027 285.15770837 230.06473045 291 239 C291.69577148 239.52045898 292.39154297 240.04091797 293.10839844 240.57714844 C296.1031516 244.41296806 295.49420448 248.29048063 295.390625 253.015625 C295.38496521 253.98659119 295.37930542 254.95755737 295.37347412 255.95794678 C295.35110311 259.05580169 295.30090473 262.15249533 295.25 265.25 C295.22993597 267.35154578 295.21168503 269.45310972 295.1953125 271.5546875 C295.1512358 276.7035717 295.08220258 281.85158903 295 287 C260.64643207 287.0687011 226.29287986 287.12154654 191.93925805 287.15319599 C187.88138025 287.156948 183.82350259 287.16083098 179.765625 287.16479492 C178.9577915 287.16558185 178.149958 287.16636878 177.3176447 287.16717956 C164.24582953 287.18022529 151.17405404 287.20387454 138.10226239 287.23145839 C124.68444934 287.25953578 111.26665703 287.27618119 97.8488158 287.28226548 C89.57259504 287.28637709 81.29648643 287.29935251 73.02030019 287.3237494 C67.34118785 287.33963541 61.66213329 287.34439389 55.98300035 287.34050413 C52.70884331 287.33858702 49.43492253 287.34313032 46.1607914 287.35761642 C42.60395689 287.37258005 39.04759911 287.36893902 35.49075317 287.36076355 C34.4654346 287.36950207 33.44011603 287.3782406 32.38372719 287.38724393 C23.00478342 287.32912465 14.01064128 285.63507121 7 279 C0.5742215 271.70263984 -0.29466797 264.63735847 -0.24050903 255.18008423 C-0.24222107 254.09136017 -0.24393311 253.00263611 -0.24569702 251.88092041 C-0.24900773 248.22084001 -0.23795967 244.56094258 -0.22705078 240.90087891 C-0.22643815 238.23687019 -0.22661623 235.57287239 -0.2277813 232.90886497 C-0.22884385 226.49383527 -0.21961668 220.07886164 -0.20677864 213.66384634 C-0.19237125 206.24228202 -0.19078873 198.82075131 -0.18920898 191.39916992 C-0.17871091 171.80777107 -0.15078865 152.21638469 -0.125 132.625 C-0.08375 88.85875 -0.0425 45.0925 0 0 Z M50.75 45.6875 C38.1976404 61.37296048 33.46865108 80.13096164 35 100 C37.63809588 119.71319415 48.27670903 136.94692474 64 149 C81.27303021 160.41398593 99.95258648 164.71387071 120.54248047 161.61767578 C138.51870324 157.844516 154.33538385 147.18042637 164.9296875 132.23828125 C176.35629446 114.3653432 180.57843317 94.91958861 176.0703125 74.109375 C171.76189172 56.52970014 160.66422617 41.14775529 145.5625 31.1875 C113.45370715 12.04831773 75.77749805 17.34310462 50.75 45.6875 Z M222 42 C221.16650049 45.04340127 221.16650049 45.04340127 222 48 C223.8670991 50.30275556 225.35647741 51.67823871 228 53 C229.61039237 53.1011246 231.22490944 53.1394349 232.8384552 53.14717102 C234.37153069 53.15790398 234.37153069 53.15790398 235.93557739 53.16885376 C237.06132172 53.17154266 238.18706604 53.17423157 239.34692383 53.17700195 C241.12021812 53.18685875 241.12021812 53.18685875 242.92933655 53.19691467 C246.85522818 53.21668238 250.78110647 53.22831746 254.70703125 53.23828125 C256.05844328 53.24232869 257.4098551 53.24644561 258.76126671 53.25063133 C265.11029905 53.26968391 271.45931975 53.28391472 277.80837518 53.2922433 C285.13739703 53.30201607 292.46611689 53.32833595 299.79503232 53.36874419 C305.45965005 53.39890449 311.1241812 53.41371208 316.78887767 53.41702431 C320.17224724 53.41937499 323.55529421 53.42833683 326.93857765 53.45348549 C330.71426262 53.47774552 334.48915408 53.4769355 338.26489258 53.4699707 C339.38456421 53.48278076 340.50423584 53.49559082 341.65783691 53.50878906 C347.6976467 53.48700143 347.6976467 53.48700143 353.16703796 51.15422058 C355.55963946 48.34227397 356.07533774 46.69154922 356 43 C354.22960551 40.25283613 352.93708156 38.46854078 350 37 C348.39191694 36.89678401 346.7796345 36.85618822 345.16827393 36.84609985 C344.14766876 36.83749939 343.1270636 36.82889893 342.07553101 36.82003784 C340.95135773 36.81577789 339.82718445 36.81151794 338.66894531 36.80712891 C337.48835541 36.79895142 336.3077655 36.79077393 335.09140015 36.78234863 C331.17032221 36.75746228 327.2492518 36.74081938 323.328125 36.7265625 C321.97797387 36.72120254 320.62782281 36.71582503 319.27767181 36.71043015 C313.66050263 36.68879991 308.04333631 36.67006409 302.42613602 36.65880775 C294.37847437 36.64257469 286.33129602 36.60941508 278.28381658 36.55240691 C272.62428128 36.51368364 266.96487511 36.4941722 261.30521083 36.48888719 C257.92563835 36.48523643 254.54658132 36.47324646 251.1671524 36.44078445 C247.39393718 36.40924358 243.62194471 36.40908047 239.84863281 36.41650391 C238.73255646 36.40009857 237.6164801 36.38369324 236.46658325 36.36679077 C229.88864432 36.41981847 226.39632612 36.92196841 222 42 Z M222 88 C221.16650049 91.04340127 221.16650049 91.04340127 222 94 C223.8670991 96.30275556 225.35647741 97.67823871 228 99 C230.84143944 99.114207 233.65892364 99.16785861 236.5012207 99.17700195 C237.82097397 99.18685875 237.82097397 99.18685875 239.16738892 99.19691467 C242.08685384 99.21666879 245.00626728 99.22831474 247.92578125 99.23828125 C249.41961366 99.24439454 249.41961366 99.24439454 250.9436245 99.25063133 C256.21428598 99.27150073 261.48492135 99.28579889 266.75561523 99.29516602 C272.20332342 99.30623447 277.65062358 99.34063702 283.09818745 99.38033772 C287.2837755 99.40646593 291.46926577 99.41485446 295.65492821 99.41844749 C297.66319727 99.42332299 299.67146169 99.43496426 301.67965126 99.45348549 C304.49029623 99.47779695 307.29987808 99.47692658 310.1105957 99.4699707 C311.35529381 99.48918579 311.35529381 99.48918579 312.62513733 99.50878906 C316.56112678 99.47327936 318.56870788 99.2585417 322.02043152 97.18937683 C324.31818592 95.04746172 324.31818592 95.04746172 324.5625 91.5 C323.92519445 87.53454327 323.1376325 86.39936603 320 84 C316.75167315 82.37583657 313.17719602 82.82556787 309.60644531 82.80712891 C308.73796967 82.79895142 307.86949402 82.79077393 306.97470093 82.78234863 C304.09251601 82.75747949 301.21038041 82.74097404 298.328125 82.7265625 C297.34451744 82.72123882 296.36090988 82.71591515 295.34749603 82.71043015 C290.14052611 82.68369095 284.93358022 82.66431919 279.7265625 82.64990234 C274.34835742 82.63325972 268.97076575 82.58848723 263.59279251 82.5375309 C259.45777687 82.50387072 255.32290697 82.4923262 251.18776703 82.48667526 C249.20542467 82.47995856 247.22309204 82.46472563 245.24088287 82.44078445 C242.4637918 82.40915871 239.68835676 82.40909227 236.91113281 82.41650391 C236.09428009 82.40009857 235.27742737 82.38369324 234.43582153 82.36679077 C228.63262018 82.43008978 225.98758232 83.73477637 222 88 Z M222 134 C221.35116052 137.53257049 221.5435153 139.19571743 223.3125 142.3125 C226.04185438 145.04185438 228.71929652 145.13051 232.39208984 145.17700195 C233.27665863 145.18983719 234.16122742 145.20267242 235.07260132 145.21589661 C236.02575226 145.22328354 236.9789032 145.23067047 237.9609375 145.23828125 C239.43501572 145.25038887 239.43501572 145.25038887 240.93887329 145.26274109 C243.01847575 145.27657155 245.09810081 145.28729835 247.17773438 145.29516602 C250.35590565 145.31239648 253.53304132 145.35629424 256.7109375 145.40039062 C258.73176319 145.41051629 260.75259771 145.41903278 262.7734375 145.42578125 C263.72253998 145.44328934 264.67164246 145.46079742 265.64950562 145.47883606 C269.94404758 145.46473307 272.34139734 145.4025608 276.07275391 143.12182617 C278.3765882 140.58539041 279.08187073 139.43857048 279 136 C276.53784712 131.31410561 276.53784712 131.31410561 272 129 C270.57466506 128.88981346 269.14495748 128.8314155 267.71557617 128.80712891 C266.85425583 128.79106598 265.99293549 128.77500305 265.10551453 128.75845337 C261.17183356 128.71385018 257.23831818 128.6729457 253.30444336 128.64990234 C251.231738 128.63334278 249.15908974 128.60605283 247.08666992 128.56787109 C244.09263598 128.5130222 241.09993784 128.49121689 238.10546875 128.4765625 C237.18340134 128.45389313 236.26133392 128.43122375 235.31132507 128.40786743 C229.13384539 128.42808621 226.19317819 129.36173586 222 134 Z M43 198 C42.55716637 199.9240619 42.55716637 199.9240619 42.64355469 202.15844727 C42.64055359 203.01596085 42.63755249 203.87347443 42.63446045 204.75697327 C42.64680725 205.68408615 42.65915405 206.61119904 42.671875 207.56640625 C42.67468475 208.99024879 42.67468475 208.99024879 42.67755127 210.44285583 C42.68428011 212.451116 42.69821102 214.45936289 42.71875 216.4675293 C42.74990757 219.55334551 42.75971933 222.63865148 42.765625 225.72460938 C42.77479443 227.67188127 42.78517 229.61914794 42.796875 231.56640625 C42.80112488 232.49554337 42.80537476 233.42468048 42.80975342 234.38197327 C42.81936096 235.23633469 42.82896851 236.09069611 42.83886719 236.97094727 C42.84569519 237.72658463 42.85252319 238.48222198 42.85955811 239.26075745 C42.81333208 241.0292987 42.81333208 241.0292987 44 242 C46.84241878 242.10014668 49.66061398 242.13438962 52.50354004 242.12698364 C53.40615397 242.12854363 54.3087679 242.13010362 55.23873377 242.13171089 C58.28742727 242.13572497 61.33607168 242.13252967 64.38476562 242.12939453 C66.56060312 242.13074839 68.73644039 242.13252824 70.91227722 242.13470459 C76.83978774 242.13928074 82.76728095 242.13748862 88.69479179 242.1343255 C94.88299483 242.13180284 101.07119633 242.13413918 107.25939941 242.13571167 C118.32033314 242.13765052 129.38125917 242.13453275 140.44219166 242.12945233 C150.48083352 242.12498429 160.51946382 242.12576022 170.55810547 242.13037109 C182.20217196 242.13569816 193.84623122 242.13771772 205.49029875 242.13475883 C211.65904741 242.13319562 217.8277881 242.13300347 223.99653625 242.13629532 C229.79452118 242.13917291 235.59248415 242.13720042 241.39046669 242.13140106 C243.525073 242.13007286 245.65968114 242.13046859 247.79428673 242.13266373 C250.69503652 242.13537287 253.59571479 242.13199701 256.49645996 242.12698364 C257.78091688 242.13032973 257.78091688 242.13032973 259.09132242 242.13374341 C262.85098447 242.48536563 262.85098447 242.48536563 266 241 C266.10818174 239.66026951 266.14898799 238.31498357 266.16113281 236.97094727 C266.17074036 236.11658585 266.1803479 235.26222443 266.19024658 234.38197327 C266.19449646 233.45283615 266.19874634 232.52369904 266.203125 231.56640625 C266.20882507 230.61813461 266.21452515 229.66986298 266.22039795 228.69285583 C266.22986272 226.68286256 266.23638777 224.67285367 266.24023438 222.6628418 C266.24994806 219.57899088 266.28096082 216.4958039 266.3125 213.41210938 C266.31902882 211.46354564 266.32427977 209.51497712 266.328125 207.56640625 C266.3466452 206.17573692 266.3466452 206.17573692 266.36553955 204.75697327 C266.3610379 203.4707029 266.3610379 203.4707029 266.35644531 202.15844727 C266.36009094 201.40201431 266.36373657 200.64558136 266.36749268 199.8662262 C266.24622009 199.25037155 266.12494751 198.63451691 266 198 C262.12354038 195.41569359 258.91607651 195.72197498 254.42126465 195.74603271 C253.53468721 195.74291273 252.64810977 195.73979275 251.73466635 195.73657823 C248.75208052 195.7285756 245.76969686 195.73493069 242.78710938 195.74121094 C240.65362936 195.73850208 238.52015027 195.73494175 236.38667297 195.73059082 C230.58309206 195.72145202 224.77958203 195.72501722 218.97599983 195.73134899 C212.91152882 195.73640127 206.84706401 195.73171969 200.78259277 195.72857666 C190.59707547 195.72493476 180.41158713 195.72974199 170.22607422 195.73925781 C158.4387071 195.75014278 146.65140916 195.74661736 134.86404371 195.735605 C124.75615835 195.72653851 114.64829386 195.72524372 104.54040575 195.73048234 C98.49792884 195.73360555 92.45548448 195.73400177 86.41300964 195.72740936 C80.73315875 195.7216458 75.05339733 195.72561464 69.37355614 195.73719788 C67.28494096 195.73984977 65.1963183 195.73907041 63.10770607 195.73467255 C60.26461304 195.72923651 57.42180974 195.73602757 54.57873535 195.74603271 C53.32840901 195.73934055 53.32840901 195.73934055 52.05282354 195.73251319 C48.17763116 195.75910597 46.30025999 195.79982667 43 198 Z " fill="#3B77FF" transform="translate(0,142)"/>
<path d="M0 0 C1.45171143 -0.0041765 2.90341959 -0.00965575 4.35512173 -0.01631981 C8.33116022 -0.03075187 12.30699102 -0.02653674 16.28304076 -0.019153 C20.57626644 -0.01441805 24.8694474 -0.02693409 29.16265869 -0.03717041 C37.56843618 -0.05435754 45.97413891 -0.05519857 54.37992941 -0.04995751 C61.21318498 -0.0459143 68.04641848 -0.04736116 74.879673 -0.05270576 C76.33910702 -0.0538284 76.33910702 -0.0538284 77.82802454 -0.05497371 C79.80465896 -0.05650521 81.78129338 -0.05804355 83.75792779 -0.05958868 C102.29034268 -0.07331349 120.82271534 -0.06787623 139.35512926 -0.05640347 C156.30313938 -0.04647184 173.25104032 -0.05941058 190.1990336 -0.08333766 C207.60831757 -0.10773048 225.01755068 -0.11733603 242.42685139 -0.11068493 C252.19801008 -0.10719303 261.9690848 -0.10942287 271.74023056 -0.12693596 C280.05847973 -0.14166023 288.37658582 -0.14229045 296.69483219 -0.12486505 C300.93712448 -0.1163544 305.17916119 -0.11420698 309.42144012 -0.1295166 C313.30893317 -0.14337193 317.19595188 -0.13859 321.08341755 -0.11927737 C322.4857683 -0.1155196 323.88815712 -0.11843294 325.29047392 -0.12888902 C334.71127773 -0.19410911 342.44844662 0.7253908 350.32791138 6.17674255 C351.21349731 7.08553162 351.21349731 7.08553162 352.11697388 8.01268005 C352.72283325 8.60307068 353.32869263 9.1934613 353.95291138 9.80174255 C365.98212557 27.18894735 359.74197388 47.63615326 359.74197388 68.38768005 C229.39197388 68.38768005 99.04197388 68.38768005 -35.25802612 68.38768005 C-35.25802612 15.55161448 -35.25802612 15.55161448 -26.44552612 6.45018005 C-18.64927925 -0.3154329 -9.76923832 -0.04575789 0 0 Z M6.74197388 31.38768005 C6.06937647 35.04959925 6.21674893 36.61034714 8.30447388 39.70018005 C11.55632735 41.95146323 13.79659905 42.31965635 17.74197388 42.38768005 C22.06591162 40.83972138 22.06591162 40.83972138 24.74197388 37.38768005 C25.24228594 33.97196153 25.24228594 33.97196153 24.74197388 30.38768005 C22.63773601 27.82314015 21.07093027 26.6716909 17.80447388 25.97361755 C12.51476743 25.59291898 9.86284594 26.90142647 6.74197388 31.38768005 Z M38.74197388 30.38768005 C37.57987168 32.78119501 37.57987168 32.78119501 37.74197388 35.38768005 C39.04641202 38.50383785 40.10325924 39.99735444 42.99197388 41.76268005 C46.61231723 42.58548536 49.14871996 42.30232651 52.74197388 41.38768005 C55.81863548 39.25768356 56.59960964 38.13113774 57.30447388 34.45018005 C56.53055414 30.23661704 55.2227078 28.85319992 51.74197388 26.38768005 C46.34880734 25.1372483 42.48794534 26.18765144 38.74197388 30.38768005 Z M69.74197388 31.38768005 C69.74197388 34.9090115 70.04755964 37.230323 71.86697388 40.26268005 C75.57807138 42.48933856 79.33409583 42.70765234 83.49197388 41.76268005 C86.38068851 39.99735444 87.43753573 38.50383785 88.74197388 35.38768005 C88.74197388 31.89184146 88.01099031 30.68930453 85.67947388 28.07518005 C79.46047804 24.50256543 73.86242301 25.1405475 69.74197388 31.38768005 Z M124.74197388 30.38768005 C123.57987168 32.78119501 123.57987168 32.78119501 123.74197388 35.38768005 C125.01931526 38.43910669 125.94791784 39.97264191 128.90133667 41.51633835 C132.40255547 42.59030793 135.40247079 42.63952417 139.06716919 42.64164734 C139.7947858 42.64476732 140.52240242 42.6478873 141.27206802 42.65110183 C143.70482792 42.65906512 146.13733722 42.65276476 148.57009888 42.64646912 C150.31639756 42.64917972 152.0626951 42.65274104 153.80899048 42.65708923 C158.5485769 42.66620723 163.28807624 42.66267139 168.02766418 42.65633106 C172.98744949 42.65126804 177.94722734 42.65596336 182.90701294 42.65910339 C191.23612812 42.66274215 199.56520783 42.6579463 207.89431763 42.64842224 C217.52428657 42.63753787 227.15417083 42.64106351 236.78413773 42.65207505 C245.05177155 42.66115048 253.31937987 42.66243195 261.58701706 42.65719771 C266.52511737 42.65407943 271.46317788 42.65366481 276.40127563 42.66027069 C281.0437059 42.66604723 285.68602696 42.66204157 290.32844543 42.65048218 C292.03243325 42.64783725 293.73643026 42.64859784 295.44041443 42.65300751 C297.7659933 42.65847098 300.09122201 42.6516192 302.41677856 42.64164734 C303.71830872 42.64089329 305.01983887 42.64013924 306.36080933 42.63936234 C310.59765672 42.32398596 313.4943919 41.5520899 316.61697388 38.63768005 C317.96558067 36.3597292 317.96558067 36.3597292 317.74197388 33.38768005 C316.4638899 29.55342812 315.13767194 28.54358355 311.74197388 26.38768005 C309.10703225 26.00252407 306.89341652 25.8457633 304.2649231 25.87974548 C303.52097227 25.87350552 302.77702145 25.86726556 302.01052666 25.86083651 C299.52224741 25.84490498 297.03494757 25.85751075 294.54666138 25.87010193 C292.76095 25.86468086 290.9752431 25.85755829 289.18954468 25.84886169 C284.34244068 25.83062358 279.49567717 25.8376979 274.6485672 25.85037804 C269.57666606 25.86050315 264.50479413 25.85111371 259.43289185 25.84483337 C250.91542322 25.83755555 242.39809332 25.84714823 233.88064575 25.86619568 C224.03246633 25.88796466 214.18461815 25.88091338 204.33644676 25.85889006 C195.8819565 25.84073992 187.42756597 25.83817585 178.97306252 25.84864473 C173.92313838 25.85488178 168.87336995 25.85570946 163.82345581 25.84249878 C159.07584879 25.83094655 154.32866895 25.83895455 149.58110809 25.86207581 C147.83842427 25.86736625 146.09570452 25.86584337 144.35303497 25.85702515 C141.97454574 25.84609893 139.59742651 25.8597964 137.21902466 25.87974548 C136.18375798 25.86636115 136.18375798 25.86636115 135.12757683 25.85270643 C130.42584922 25.92923556 128.03370124 27.05602572 124.74197388 30.38768005 Z " fill="#3979FF" transform="translate(35.258026123046875,58.61231994628906)"/>
<path d="M0 0 C0.80364412 -0.00523668 1.60728824 -0.01047336 2.43528521 -0.01586872 C5.13135564 -0.03088473 7.82723655 -0.03157422 10.52334595 -0.03224182 C12.45506613 -0.03986218 14.38678328 -0.04828947 16.3184967 -0.0574646 C21.5685011 -0.07942751 26.81844726 -0.08821082 32.06849241 -0.09329104 C35.347738 -0.09693223 38.62696828 -0.10317102 41.90620804 -0.11029243 C53.34418662 -0.13479231 64.78211981 -0.14784018 76.22012329 -0.15138245 C86.88567958 -0.15501903 97.55094834 -0.18492192 108.21641672 -0.22678703 C117.37066556 -0.26146184 126.52481897 -0.27693039 135.67913306 -0.27762848 C141.14779518 -0.2784222 146.61616443 -0.28720449 152.08475876 -0.31562614 C157.22797873 -0.3417588 162.37066199 -0.34403875 167.51391792 -0.3279705 C169.40133011 -0.32615224 171.28877283 -0.33288066 173.17611885 -0.34878922 C175.753711 -0.369191 178.32941481 -0.35873387 180.90698242 -0.34057617 C181.65329371 -0.35377614 182.399605 -0.36697611 183.16853178 -0.38057607 C188.88843582 -0.28858646 191.21416417 1.3549287 195.08047485 5.27415466 C196.53175987 8.17672469 196.21580964 10.71287579 196.22573853 13.95530701 C196.22909714 14.6416774 196.23245575 15.32804779 196.23591614 16.03521729 C196.24543533 18.31019386 196.24736981 20.5850969 196.2484436 22.86009216 C196.25165581 24.43948904 196.25501985 26.01888562 196.25852966 27.59828186 C196.26452356 30.91212148 196.26636933 34.22593501 196.26577759 37.53977966 C196.26567602 41.78575616 196.27932177 46.03156523 196.2965498 50.27750206 C196.30767035 53.54087593 196.30969677 56.80420937 196.30916786 60.06760025 C196.31034814 61.63289084 196.31477262 63.19818247 196.32250023 64.76345444 C196.33230015 66.95382641 196.32942209 69.14383541 196.32339478 71.33421326 C196.32481979 72.58060577 196.32624481 73.82699829 196.32771301 75.11116028 C196.08983997 78.15434388 195.80908294 79.79559168 194.08047485 82.27415466 C187.03509107 86.93878853 179.46050035 87.48743251 171.22109985 88.41477966 C169.78465143 88.5871896 168.34835335 88.76085628 166.91220093 88.93571472 C163.15388297 89.38961146 159.39366149 89.82522878 155.63278198 90.25730896 C152.56055563 90.61339108 149.48995378 90.98245044 146.41934586 91.35219193 C142.74959223 91.79390185 139.07921522 92.23029426 135.40859985 92.66477966 C134.71164253 92.74730232 134.01468521 92.82982498 133.29660797 92.91484833 C131.32287394 93.1471268 129.34865615 93.37528347 127.37442017 93.60325623 C126.25271423 93.73331055 125.1310083 93.86336487 123.97531128 93.99736023 C121.08047485 94.27415466 121.08047485 94.27415466 117.08047485 94.27415466 C117.04180298 92.7156781 117.04180298 92.7156781 117.00234985 91.12571716 C116.65564317 81.46547164 116.22301998 72.80205282 109.39297485 65.33665466 C100.39720221 59.7355132 90.77565284 58.84993951 80.3578186 60.77806091 C73.38986283 62.8137742 69.49306716 66.87525353 65.94302368 73.18772888 C64.33891709 77.06791425 64.39989573 81.06217968 64.33047485 85.21165466 C64.2860022 86.52359802 64.2860022 86.52359802 64.2406311 87.86204529 C64.1705692 89.99893344 64.12318434 92.13654489 64.08047485 94.27415466 C55.28932288 93.6632332 46.55406774 92.81760221 37.80703735 91.75071716 C35.99506363 91.53045364 35.99506363 91.53045364 34.14648438 91.30574036 C31.61694423 90.99649136 29.08761804 90.68548758 26.5585022 90.37278748 C22.6958377 89.89797002 18.83160656 89.43762033 14.9671936 88.97727966 C12.49703158 88.67348477 10.02697543 88.36882749 7.55703735 88.06321716 C6.40901642 87.92872162 5.26099548 87.79422607 4.07818604 87.65565491 C-9.81153162 85.89553076 -9.81153162 85.89553076 -14.07281494 80.59645081 C-16.16909084 76.82517726 -16.42568885 74.63811035 -16.43710327 70.35423279 C-16.44411255 69.68999802 -16.45112183 69.02576324 -16.45834351 68.34140015 C-16.47583987 66.1623001 -16.46433232 63.98451616 -16.45077515 61.80540466 C-16.45347251 60.2813543 -16.45735696 58.75730561 -16.46237183 57.23326111 C-16.46825549 54.04571581 -16.45974107 50.85862017 -16.44100952 47.67112732 C-16.41821996 43.59556025 -16.43134922 39.52104695 -16.45529938 35.44551849 C-16.46978842 32.30038078 -16.4651373 29.15549084 -16.45478821 26.01034546 C-16.45212947 24.50811639 -16.45536059 23.00586446 -16.46470642 21.50366211 C-16.47492424 19.39986525 -16.45930208 17.29774895 -16.43710327 15.19407654 C-16.4339209 13.99971985 -16.43073853 12.80536316 -16.42745972 11.57481384 C-15.80761213 7.54692176 -14.4976792 5.40435469 -11.91952515 2.27415466 C-8.2504528 -0.29554399 -4.30793839 -0.01385777 0 0 Z " fill="#1B9DFF" transform="translate(315.9195251464844,290.72584533691406)"/>
<path d="M0 0 C15.29493909 1.64514162 30.57285623 3.39957957 45.83959961 5.28848267 C47.65650162 5.51302963 49.47356006 5.73631442 51.29077148 5.95834351 C53.86230655 6.27309907 56.43317271 6.59283425 59.00390625 6.9140625 C59.78294815 7.00876328 60.56199005 7.10346405 61.36463928 7.20103455 C66.77085599 7.885428 66.77085599 7.885428 69 9 C69.23828125 10.78515625 69.23828125 10.78515625 69.3125 13.0625 C69.93816124 19.84768832 73.13555205 24.05080442 77.75 28.875 C85.30123176 33.81234384 95.03381963 34.1626838 103.74609375 32.46484375 C110.26068285 30.69341759 114.24480802 28.50741712 118.1875 22.875 C120.21958307 19.10581366 120.92686529 15.23752506 121.60546875 11.0390625 C122 9 122 9 123 8 C124.96755139 7.66937559 126.94522444 7.39881065 128.92504883 7.15209961 C130.19339066 6.99200912 131.46173248 6.83191864 132.76850891 6.66697693 C134.16466291 6.49526891 135.56083755 6.32372864 136.95703125 6.15234375 C138.38095343 5.97471621 139.80483707 5.79677945 141.22868347 5.61854553 C144.2186166 5.24520687 147.20889434 4.87480517 150.19946289 4.5065918 C154.03009387 4.03482822 157.85995596 3.55713948 161.68959522 3.07739925 C164.63274937 2.70915486 167.57621164 2.34342581 170.51978111 1.97851753 C171.93163471 1.80331162 173.34341047 1.6274773 174.75510597 1.45100212 C176.73202214 1.20438444 178.70938635 0.96136648 180.68676758 0.71850586 C182.37434929 0.50985146 182.37434929 0.50985146 184.09602356 0.29698181 C187 0 187 0 191 0 C191.07617191 7.1532508 191.12865121 14.30639667 191.16479492 21.45996094 C191.17986534 23.89261789 191.20032523 26.32524774 191.22631836 28.7578125 C191.2627774 32.25788061 191.2797442 35.7575889 191.29296875 39.2578125 C191.30845261 40.34240753 191.32393646 41.42700256 191.33988953 42.54446411 C191.34133804 49.06877683 190.79919748 53.61763638 186.5 58.8125 C183.04056466 61.55121964 179.28487357 61.13303002 175.07389832 61.14717102 C174.36503033 61.15084771 173.65616233 61.1545244 172.9258135 61.1583125 C170.54452917 61.16934773 168.16328849 61.17319288 165.78198242 61.17700195 C164.0770097 61.18326666 162.37203834 61.18991347 160.66706848 61.19691467 C156.03063224 61.21432204 151.39420632 61.22487545 146.7577455 61.2331202 C143.86160525 61.23827034 140.96546821 61.24434602 138.06933022 61.25063133 C129.00950515 61.26968166 119.94968823 61.28391381 110.88984698 61.2922433 C100.42871787 61.30201977 89.96780013 61.32835064 79.50674552 61.36874419 C71.42257989 61.39888976 63.33847491 61.41371064 55.25425416 61.41702431 C50.42499912 61.41937633 45.59596993 61.42835656 40.76677513 61.45348549 C36.22361218 61.47674436 31.68082414 61.48100829 27.13761711 61.47072411 C25.47112532 61.47022812 23.80461522 61.47656699 22.13817978 61.49028015 C19.86068787 61.50797167 17.58454553 61.50090778 15.30705261 61.48774719 C14.03334399 61.49013555 12.75963537 61.4925239 11.44732952 61.49498463 C7.36649182 60.90903776 5.20244954 59.54572333 2 57 C-0.16670057 53.9468623 -0.24461983 51.37016417 -0.22705078 47.68066406 C-0.22689972 46.61986633 -0.22674866 45.5590686 -0.22659302 44.46612549 C-0.21627045 43.32746033 -0.20594788 42.18879517 -0.1953125 41.015625 C-0.1924826 39.84489441 -0.18965271 38.67416382 -0.18673706 37.46795654 C-0.17554156 33.72853375 -0.15043776 29.98935041 -0.125 26.25 C-0.1149694 23.71484721 -0.10584369 21.17969066 -0.09765625 18.64453125 C-0.07560426 12.42960579 -0.04213275 6.21482 0 0 Z " fill="#1B9DFF" transform="translate(311,392)"/>
<path d="M0 0 C11.63560196 12.0906255 15.64930944 27.27148552 15.37890625 43.671875 C14.96159785 53.4661032 11.8167264 62.23653451 6.09765625 70.1796875 C5.41703125 69.4784375 4.73640625 68.7771875 4.03515625 68.0546875 C3.05958036 67.09269902 2.08011409 66.13464652 1.09765625 65.1796875 C0.60136719 64.68726563 0.10507813 64.19484375 -0.40625 63.6875 C-6.1305082 58.36325021 -13.25635762 54.84497254 -20.90234375 53.1796875 C-18.96808692 49.1429776 -16.60796631 45.41168847 -14.2421875 41.6171875 C-10.76337311 35.2883823 -10.85199768 27.26690375 -12.62109375 20.3828125 C-16.27197833 10.6667487 -20.84460515 6.80768045 -30.0625 2.37890625 C-37.3726246 -0.7080377 -43.93399124 -0.30330058 -51.4140625 2.1484375 C-59.08836289 5.32899528 -64.17924622 10.83114746 -67.90234375 18.1796875 C-70.61845018 25.31416062 -70.60151927 32.77324352 -67.85546875 39.89453125 C-65.73424899 44.35302093 -63.62866175 47.86740483 -59.90234375 51.1796875 C-59.90234375 51.8396875 -59.90234375 52.4996875 -59.90234375 53.1796875 C-60.67578125 53.39882812 -61.44921875 53.61796875 -62.24609375 53.84375 C-72.04278494 56.82640598 -78.40338718 60.76483293 -84.67578125 68.859375 C-85.08054687 69.29507813 -85.4853125 69.73078125 -85.90234375 70.1796875 C-86.56234375 70.1796875 -87.22234375 70.1796875 -87.90234375 70.1796875 C-95.97838165 55.17677124 -98.75006901 41.0372957 -94.90234375 24.1796875 C-90.15736358 9.39176059 -80.81319953 -3.48135133 -66.90234375 -10.8203125 C-43.25183803 -20.86702561 -19.10520428 -17.85848019 0 0 Z " fill="#446BFF" transform="translate(146.90234375,193.8203125)"/>
<path d="M0 0 C1.35291138 -0.01029488 1.35291138 -0.01029488 2.7331543 -0.02079773 C5.69352279 -0.03899175 8.6533575 -0.03523842 11.61376953 -0.02954102 C13.6858843 -0.03410669 15.75799756 -0.03941341 17.83010864 -0.04542542 C22.16577316 -0.05434227 26.50125334 -0.05194997 30.83691406 -0.04199219 C36.37369394 -0.03051057 41.90983526 -0.05070925 47.4465313 -0.07990932 C51.72413122 -0.09831892 56.00157951 -0.09796926 60.27920914 -0.0922718 C62.3196108 -0.09211914 64.3600231 -0.0981178 66.40038681 -0.11056328 C89.15599913 -0.22981103 89.15599913 -0.22981103 97.49658203 6.84155273 C98.19783203 7.68717773 98.89908203 8.53280273 99.62158203 9.40405273 C100.32283203 10.14655273 101.02408203 10.88905273 101.74658203 11.65405273 C105.92062759 17.77598622 106.62158203 22.99974597 106.62158203 30.40405273 C98.70158203 30.40405273 90.78158203 30.40405273 82.62158203 30.40405273 C81.63158203 27.92905273 81.63158203 27.92905273 80.62158203 25.40405273 C52.24158203 25.40405273 23.86158203 25.40405273 -5.37841797 25.40405273 C-6.36841797 27.87905273 -6.36841797 27.87905273 -7.37841797 30.40405273 C-15.29841797 30.40405273 -23.21841797 30.40405273 -31.37841797 30.40405273 C-30.07965215 19.06936925 -28.11240261 12.28606946 -19.51513672 4.72827148 C-13.16073781 0.79017051 -7.29445356 -0.03934954 0 0 Z " fill="#1C9CFF" transform="translate(368.37841796875,244.595947265625)"/>
<path d="M0 0 C1.85136546 -0.01649107 3.70266908 -0.04368976 5.55371094 -0.08203125 C25.94025968 -0.50162017 25.94025968 -0.50162017 33.2331543 5.35009766 C35.51422709 7.64375701 36.69107415 9.4254629 38.2331543 12.35009766 C38.03670857 15.03313269 37.54612403 16.05273924 35.58862305 17.91259766 C22.67846883 26.47284405 7.6633922 29.28821767 -7.59106445 26.70166016 C-16.03047246 24.67203891 -23.82463519 21.67410607 -30.7668457 16.35009766 C-31.0968457 15.36009766 -31.4268457 14.37009766 -31.7668457 13.35009766 C-24.97814027 0.0678479 -13.2467172 0.08631303 0 0 Z " fill="#446AFF" transform="translate(102.766845703125,261.64990234375)"/>
<path d="M0 0 C1.08667969 -0.01063477 1.08667969 -0.01063477 2.1953125 -0.02148438 C7.47701916 0.04185713 7.47701916 0.04185713 9.70620728 1.72827148 C11.9570616 4.7018733 11.42544091 8.35209232 11.3984375 11.9375 C11.40130768 12.76958984 11.40417786 13.60167969 11.40713501 14.45898438 C11.40917562 16.21745484 11.40364593 17.97594801 11.39111328 19.734375 C11.37505902 22.42759913 11.39096145 25.1193226 11.41015625 27.8125 C11.40817382 29.52083665 11.40433014 31.22917236 11.3984375 32.9375 C11.40754654 34.14696289 11.40754654 34.14696289 11.4168396 35.38085938 C11.34625406 40.98560678 11.34625406 40.98560678 9.69033813 43.14672852 C6.94086805 45.24627151 3.87862678 44.90997353 0.5625 44.875 C-1.41556641 44.90400391 -1.41556641 44.90400391 -3.43359375 44.93359375 C-7 44.4375 -7 44.4375 -9.19189453 42.91430664 C-11.69388961 39.48698553 -11.556915 36.39611131 -11.49609375 32.3125 C-11.49754898 31.52858887 -11.49900421 30.74467773 -11.50050354 29.93701172 C-11.49884665 28.28283972 -11.48730872 26.62865198 -11.46655273 24.97460938 C-11.43759673 22.44594694 -11.44594701 19.91938195 -11.45898438 17.390625 C-11.45274653 15.78123983 -11.44435522 14.17186127 -11.43359375 12.5625 C-11.43652939 11.8082373 -11.43946503 11.05397461 -11.44248962 10.27685547 C-11.38585245 7.11758482 -11.18026237 4.78183472 -9.70336914 1.96069336 C-6.88344213 -0.56095271 -3.58173237 -0.09878443 0 0 Z " fill="#1C9CFF" transform="translate(406,365.5625)"/>
<path d="M0 0 C3.86720247 2.00521609 6.94761566 4.11127178 9 8 C10.39055814 14.05886049 10.11418593 17.41594247 7 23 C4.16384849 27.03606177 0.91899012 27.95380837 -3.7578125 28.8125 C-8.24659042 29.18786819 -11.09239748 27.59819257 -14.75 25.1875 C-18.3556604 21.68199683 -18.89423869 19.09286683 -19.375 14.125 C-19.23299569 9.42998245 -17.80258513 6.76136425 -15 3 C-10.35232347 -0.35065052 -5.56292669 -0.90721564 0 0 Z " fill="#446AFF" transform="translate(111,209)"/>
</svg>
